Coordinates
version=1
nRows=9
nColumns=36
inDegrees=yes

Units are S.I. units (second, meters, Newtons, ...)
If the header above contains a line with 'inDegrees', this indicates whether rotational values are in degrees (yes) or radians (no).

endheader
time	pelvis_tilt	pelvis_list	pelvis_rotation	pelvis_tx	pelvis_ty	pelvis_tz	hip_flexion_r	hip_adduction_r	hip_rotation_r	knee_angle_r	knee_angle_r_beta	ankle_angle_r	subtalar_angle_r	mtp_angle_r	hip_flexion_l	hip_adduction_l	hip_rotation_l	knee_angle_l	knee_angle_l_beta	ankle_angle_l	subtalar_angle_l	mtp_angle_l	lumbar_extension	lumbar_bending	lumbar_rotation	arm_flex_r	arm_add_r	arm_rot_r	elbow_flex_r	pro_sup_r	arm_flex_l	arm_add_l	arm_rot_l	elbow_flex_l	pro_sup_l
      2.97500000	    -22.08207215	     -3.10847438	      2.88045117	      0.17718832	      0.74023601	     -0.11322079	     77.18123338	     -8.68755319	      1.02343123	     86.50243812	      1.50975236	     20.91176328	    -12.76085103	     -7.49999987	     77.04147128	      0.17443334	     11.86961169	     92.36256670	      1.61203089	     24.08500517	     -8.55952289	     -7.49999987	    -33.07931015	      0.89399139	     -7.37776089	     20.14380655	    -21.70318335	     27.64924053	     45.31538770	     82.49212952	     16.91270271	    -25.26958129	     -1.63497371	     24.24016494	     52.00943878
      2.97916670	    -22.12843911	     -2.79505185	      2.42166666	      0.17820399	      0.73683063	     -0.11282012	     77.50079601	     -8.55446182	      1.26952616	     86.89909661	      1.51667535	     20.91147796	    -12.04838300	     -7.49999987	     76.95520392	     -0.24205817	     11.52630827	     92.48190911	      1.61411381	     23.91013732	     -8.80502891	     -7.49999987	    -33.22652260	      0.37172003	     -6.88306561	     19.63456563	    -21.49512282	     29.69402108	     43.33574009	     79.49308159	     17.14654899	    -25.20854276	      2.71607571	     21.73432612	     48.72986056
      2.98333330	    -22.09332348	     -2.52778372	      2.02639621	      0.17843351	      0.74097146	     -0.10256030	     77.73995918	     -7.96771433	      1.42601764	     87.07909255	      1.51981687	     20.40450035	    -11.86165518	     -7.49999987	     76.57374635	     -1.08769961	     11.43938445	     92.15735573	      1.60844929	     23.96699006	     -8.26403707	     -7.49999987	    -33.87680219	     -0.28698268	     -6.57705394	     18.86437326	    -20.54362386	     29.75591691	     41.12298039	     79.36578926	     16.89215285	    -24.90811827	      2.85570852	     21.05650725	     48.64724058
      2.98750000	    -22.01056383	     -2.24146782	      1.65526949	      0.17931050	      0.74089161	     -0.10271416	     77.98483934	     -7.66334094	      1.52462479	     87.33052688	      1.52420523	     19.97734643	    -11.56947567	     -7.49999987	     76.34575922	     -1.67102298	     11.37909674	     92.10745015	      1.60757827	     23.97919442	     -7.41613989	     -7.49999987	    -34.28024147	     -0.82006722	     -6.62177463	     18.62898369	    -19.37437098	     29.54896497	     37.91684468	     78.97533249	     16.67986559	    -24.41593709	      3.23771072	     19.71197432	     48.59923537
      2.99166670	    -21.76896488	     -1.91308954	      1.44712048	      0.17477204	      0.74462400	     -0.10613108	     78.10608807	     -7.62365998	      1.83609520	     87.36658186	      1.52483451	     19.14763622	    -11.21747939	     -7.49999987	     76.22423408	     -1.85589985	     10.92483895	     92.08368641	      1.60716352	     23.28321400	     -7.64176961	     -7.49999987	    -35.06304871	     -1.20020915	     -6.63383430	     18.27387123	    -18.64241022	     29.09563020	     35.70624169	     78.58843747	     16.52633706	    -24.22593005	      3.75720394	     19.48993335	     48.57150940
      2.99583330	    -21.62148959	     -1.64065428	      1.37422760	      0.17611278	      0.74706494	     -0.10645066	     78.17643309	     -7.87288450	      1.99305255	     87.34215477	      1.52440818	     18.41780046	    -10.81300967	     -7.49999987	     76.03253459	     -1.84811539	     10.52803618	     91.80752019	      1.60234351	     22.63273737	     -7.69384126	     -7.49999987	    -35.36476201	     -1.31101152	     -6.90082477	     17.98863794	    -17.98742789	     28.19195923	     33.82706638	     77.16237539	     16.13606307	    -23.90243639	      3.97499128	     18.37678275	     49.04008613
      3.00000000	    -21.29738357	     -1.59258950	      1.28415196	      0.18065989	      0.74204889	     -0.10138537	     77.99652439	     -7.89022359	      1.91355257	     87.73269750	      1.53122443	     18.21471618	    -10.61881268	     -7.49999987	     75.91308542	     -2.21734751	     10.25710640	     92.22412797	      1.60961468	     22.41608503	     -7.77003586	     -7.49999987	    -35.51349595	     -1.46198904	     -6.81235737	     16.94889130	    -18.07556727	     28.08012851	     33.25951778	     77.08207609	     15.10204343	    -23.86406660	      4.03499674	     18.05696612	     49.02826308
      3.00416670	    -21.80186232	     -1.15920636	      0.97563389	      0.18176165	      0.74460133	     -0.10155232	     78.69755615	     -7.77428256	      2.35254104	     87.96984633	      1.53536346	     18.03830918	    -10.21964292	     -7.49999987	     76.34238974	     -2.44422303	      9.64803222	     92.35913531	      1.61197101	     22.04446965	     -7.94462243	     -7.49999987	    -34.53307851	     -2.07032520	     -7.02441621	     15.85779711	    -17.10639788	     25.37353149	     29.46134723	     76.16628174	     13.68398909	    -23.97251393	      4.07437622	     16.58308215	     48.87254792
      3.00833330	    -21.88178823	     -1.10156664	      0.87747662	      0.18605910	      0.74572121	     -0.09651226	     78.59942176	     -7.53572747	      2.33408739	     88.14476409	      1.53841635	     17.89022192	     -9.91293933	     -7.49999987	     76.20809636	     -2.92483342	      9.54722873	     92.37502257	      1.61224829	     21.80489493	     -7.60417837	     -7.49999987	    -34.06829429	     -2.43875895	     -7.17796774	     14.46584808	    -16.29959363	     22.07415835	     27.27840587	     75.20241111	     12.38640679	    -24.15862539	      3.92689524	     14.95694872	     48.70334778
